<?xml version="1.0" encoding="iso-8859-1"?>
<!-- Uploaded to: SVG Repo, www.svgrepo.com, Generator: SVG Repo Mixer Tools -->
<svg version="1.1" id="Layer_1" xmlns="http://www.w3.org/2000/svg" xmlns:xlink="http://www.w3.org/1999/xlink" 
	 viewBox="0 0 512.001 512.001" xml:space="preserve">
<g>
	<rect x="132.015" y="467.187" style="fill:#666666;" width="247.997" height="16"/>
	<rect x="248.018" y="395.484" style="fill:#666666;" width="16" height="75.72"/>
</g>
<path style="fill:#FFFFFF;" d="M32.8,36.847h446.432c13.688,0,24.784,11.096,24.784,24.784v307.713
	c0,13.688-11.096,24.784-24.784,24.784H32.8c-13.688,0-24.784-11.096-24.784-24.784V61.631C8.016,47.943,19.112,36.847,32.8,36.847z
	"/>
<path style="fill:#666666;" d="M479.233,44.814c9.279,0,16.8,7.522,16.8,16.8v307.728c0,9.279-7.522,16.8-16.8,16.8H32.8
	c-9.279,0-16.8-7.522-16.8-16.8V61.615c0-9.279,7.522-16.8,16.8-16.8l0,0h446.401 M479.2,28.815H32.8
	C14.703,28.858,0.044,43.518,0,61.615v307.728c0.044,18.097,14.703,32.756,32.8,32.8h446.401c18.097-0.044,32.756-14.703,32.8-32.8
	V61.615C511.957,43.518,497.297,28.858,479.2,28.815z"/>
<circle style="fill:#E21B1B;" cx="138.238" cy="138.595" r="62.008"/>
<path style="fill:#FFFFFF;" d="M134.128,175.366v-8.8c-5.157-0.06-10.212-1.438-14.688-4l2.448-8.52
	c4.289,2.543,9.167,3.923,14.152,4c5.712,0,9.6-2.816,9.6-7.2c0-4.088-3.2-6.711-9.888-9.168c-9.52-3.448-15.688-7.8-15.688-16.232
	c0.171-8.131,6.49-14.804,14.6-15.416v-8.856h7.44v8.44c4.342,0.047,8.619,1.07,12.512,2.992l-2.448,8.344
	c-3.807-1.999-8.036-3.058-12.335-3.088c-6.352,0-8.616,3.265-8.616,6.352c0,3.72,3.264,5.808,10.976,8.88
	c10.16,3.816,14.688,8.712,14.688,16.8c-0.175,8.533-6.816,15.53-15.328,16.152v9.336L134.128,175.366z"/>
<g>
	<rect x="76.228" y="333.41" style="fill:#CCCCCC;" width="359.296" height="8"/>
	<rect x="76.228" y="284.638" style="fill:#CCCCCC;" width="359.296" height="8"/>
	<rect x="76.228" y="235.855" style="fill:#CCCCCC;" width="359.296" height="8"/>
	<rect x="240.403" y="187.083" style="fill:#CCCCCC;" width="195.121" height="8"/>
	<rect x="240.403" y="138.3" style="fill:#CCCCCC;" width="195.121" height="8"/>
	<rect x="240.403" y="89.517" style="fill:#CCCCCC;" width="195.121" height="8"/>
</g>
</svg>